<svg width="1440" height="741" viewBox="0 0 1440 741" fill="none" xmlns="http://www.w3.org/2000/svg">
<rect width="1440" height="523" fill="#7173F9"/>
<path d="M563.3 437.4C564.294 437.4 565.1 436.594 565.1 435.6C565.1 434.606 564.294 433.8 563.3 433.8C562.306 433.8 561.5 434.606 561.5 435.6C561.5 436.594 562.306 437.4 563.3 437.4Z" fill="white"/>
<path d="M763.2 392.4C763.863 392.4 764.4 391.863 764.4 391.2C764.4 390.537 763.863 390 763.2 390C762.537 390 762 390.537 762 391.2C762 391.863 762.537 392.4 763.2 392.4Z" fill="white"/>
<path d="M763.2 731.697C763.863 731.697 764.4 731.16 764.4 730.497C764.4 729.834 763.863 729.297 763.2 729.297C762.537 729.297 762 729.834 762 730.497C762 731.16 762.537 731.697 763.2 731.697Z" fill="white"/>
<path d="M664.898 373.703C665.727 373.703 666.398 373.032 666.398 372.203C666.398 371.375 665.727 370.703 664.898 370.703C664.07 370.703 663.398 371.375 663.398 372.203C663.398 373.032 664.07 373.703 664.898 373.703Z" fill="white"/>
<path d="M664.898 713C665.727 713 666.398 712.328 666.398 711.5C666.398 710.672 665.727 710 664.898 710C664.07 710 663.398 710.672 663.398 711.5C663.398 712.328 664.07 713 664.898 713Z" fill="white"/>
<path d="M617.199 373.602C618.304 373.602 619.199 372.706 619.199 371.602C619.199 370.497 618.304 369.602 617.199 369.602C616.095 369.602 615.199 370.497 615.199 371.602C615.199 372.706 616.095 373.602 617.199 373.602Z" fill="white"/>
<path d="M617.199 712.898C618.304 712.898 619.199 712.003 619.199 710.898C619.199 709.794 618.304 708.898 617.199 708.898C616.095 708.898 615.199 709.794 615.199 710.898C615.199 712.003 616.095 712.898 617.199 712.898Z" fill="white"/>
<path d="M592.401 286.997C593.284 286.997 594.001 286.281 594.001 285.397C594.001 284.513 593.284 283.797 592.401 283.797C591.517 283.797 590.801 284.513 590.801 285.397C590.801 286.281 591.517 286.997 592.401 286.997Z" fill="white"/>
<path d="M592.401 626.294C593.284 626.294 594.001 625.577 594.001 624.694C594.001 623.81 593.284 623.094 592.401 623.094C591.517 623.094 590.801 623.81 590.801 624.694C590.801 625.577 591.517 626.294 592.401 626.294Z" fill="white"/>
<path d="M647.202 273.302C648.085 273.302 648.802 272.585 648.802 271.702C648.802 270.818 648.085 270.102 647.202 270.102C646.318 270.102 645.602 270.818 645.602 271.702C645.602 272.585 646.318 273.302 647.202 273.302Z" fill="white"/>
<path d="M647.202 612.598C648.085 612.598 648.802 611.882 648.802 610.998C648.802 610.115 648.085 609.398 647.202 609.398C646.318 609.398 645.602 610.115 645.602 610.998C645.602 611.882 646.318 612.598 647.202 612.598Z" fill="white"/>
<path d="M586.501 221.9C587.164 221.9 587.701 221.363 587.701 220.7C587.701 220.037 587.164 219.5 586.501 219.5C585.838 219.5 585.301 220.037 585.301 220.7C585.301 221.363 585.838 221.9 586.501 221.9Z" fill="white"/>
<path d="M586.501 561.197C587.164 561.197 587.701 560.66 587.701 559.997C587.701 559.334 587.164 558.797 586.501 558.797C585.838 558.797 585.301 559.334 585.301 559.997C585.301 560.66 585.838 561.197 586.501 561.197Z" fill="white"/>
<path d="M476.098 324.502C476.761 324.502 477.298 323.964 477.298 323.302C477.298 322.639 476.761 322.102 476.098 322.102C475.436 322.102 474.898 322.639 474.898 323.302C474.898 323.964 475.436 324.502 476.098 324.502Z" fill="white"/>
<path d="M476.098 663.798C476.761 663.798 477.298 663.261 477.298 662.598C477.298 661.936 476.761 661.398 476.098 661.398C475.436 661.398 474.898 661.936 474.898 662.598C474.898 663.261 475.436 663.798 476.098 663.798Z" fill="white"/>
<path d="M484.001 396.298C484.664 396.298 485.201 395.761 485.201 395.098C485.201 394.436 484.664 393.898 484.001 393.898C483.338 393.898 482.801 394.436 482.801 395.098C482.801 395.761 483.338 396.298 484.001 396.298Z" fill="white"/>
<path d="M484.001 735.595C484.664 735.595 485.201 735.058 485.201 734.395C485.201 733.733 484.664 733.195 484.001 733.195C483.338 733.195 482.801 733.733 482.801 734.395C482.801 735.058 483.338 735.595 484.001 735.595Z" fill="white"/>
<path d="M486.6 517.8C487.263 517.8 487.8 517.263 487.8 516.6C487.8 515.937 487.263 515.4 486.6 515.4C485.937 515.4 485.4 515.937 485.4 516.6C485.4 517.263 485.937 517.8 486.6 517.8Z" fill="white"/>
<path d="M581.9 496.9C582.563 496.9 583.1 496.363 583.1 495.7C583.1 495.037 582.563 494.5 581.9 494.5C581.237 494.5 580.7 495.037 580.7 495.7C580.7 496.363 581.237 496.9 581.9 496.9Z" fill="white"/>
<path d="M363.9 514.3C364.563 514.3 365.1 513.763 365.1 513.1C365.1 512.437 364.563 511.9 363.9 511.9C363.237 511.9 362.7 512.437 362.7 513.1C362.7 513.763 363.237 514.3 363.9 514.3Z" fill="white"/>
<path d="M161.5 487C162.384 487 163.1 486.284 163.1 485.4C163.1 484.516 162.384 483.8 161.5 483.8C160.616 483.8 159.9 484.516 159.9 485.4C159.9 486.284 160.616 487 161.5 487Z" fill="white"/>
<path d="M90.3 462.2C91.1836 462.2 91.9 461.484 91.9 460.6C91.9 459.716 91.1836 459 90.3 459C89.4163 459 88.7 459.716 88.7 460.6C88.7 461.484 89.4163 462.2 90.3 462.2Z" fill="white"/>
<path d="M97.5 480.7C98.1075 480.7 98.6 480.208 98.6 479.6C98.6 478.992 98.1075 478.5 97.5 478.5C96.8925 478.5 96.4 478.992 96.4 479.6C96.4 480.208 96.8925 480.7 97.5 480.7Z" fill="white"/>
<path d="M51.1 394.497C51.7075 394.497 52.2 394.004 52.2 393.397C52.2 392.789 51.7075 392.297 51.1 392.297C50.4925 392.297 50 392.789 50 393.397C50 394.004 50.4925 394.497 51.1 394.497Z" fill="white"/>
<path d="M51.1 733.794C51.7075 733.794 52.2 733.301 52.2 732.694C52.2 732.086 51.7075 731.594 51.1 731.594C50.4925 731.594 50 732.086 50 732.694C50 733.301 50.4925 733.794 51.1 733.794Z" fill="white"/>
<path d="M158.202 390.497C158.809 390.497 159.302 390.004 159.302 389.397C159.302 388.789 158.809 388.297 158.202 388.297C157.594 388.297 157.102 388.789 157.102 389.397C157.102 390.004 157.594 390.497 158.202 390.497Z" fill="white"/>
<path d="M158.202 729.794C158.809 729.794 159.302 729.301 159.302 728.694C159.302 728.086 158.809 727.594 158.202 727.594C157.594 727.594 157.102 728.086 157.102 728.694C157.102 729.301 157.594 729.794 158.202 729.794Z" fill="white"/>
<path d="M120.301 323C121.129 323 121.801 322.328 121.801 321.5C121.801 320.672 121.129 320 120.301 320C119.472 320 118.801 320.672 118.801 321.5C118.801 322.328 119.472 323 120.301 323Z" fill="white"/>
<path d="M120.301 662.297C121.129 662.297 121.801 661.625 121.801 660.797C121.801 659.968 121.129 659.297 120.301 659.297C119.472 659.297 118.801 659.968 118.801 660.797C118.801 661.625 119.472 662.297 120.301 662.297Z" fill="white"/>
<path d="M92.2016 321.997C92.8091 321.997 93.3016 321.504 93.3016 320.897C93.3016 320.289 92.8091 319.797 92.2016 319.797C91.594 319.797 91.1016 320.289 91.1016 320.897C91.1016 321.504 91.594 321.997 92.2016 321.997Z" fill="white"/>
<path d="M92.2016 661.294C92.8091 661.294 93.3016 660.801 93.3016 660.194C93.3016 659.586 92.8091 659.094 92.2016 659.094C91.594 659.094 91.1016 659.586 91.1016 660.194C91.1016 660.801 91.594 661.294 92.2016 661.294Z" fill="white"/>
<path d="M107.901 248.2C108.508 248.2 109.001 247.708 109.001 247.1C109.001 246.492 108.508 246 107.901 246C107.293 246 106.801 246.492 106.801 247.1C106.801 247.708 107.293 248.2 107.901 248.2Z" fill="white"/>
<path d="M107.901 587.497C108.508 587.497 109.001 587.004 109.001 586.397C109.001 585.789 108.508 585.297 107.901 585.297C107.293 585.297 106.801 585.789 106.801 586.397C106.801 587.004 107.293 587.497 107.901 587.497Z" fill="white"/>
<path d="M173.202 259.903C173.809 259.903 174.302 259.411 174.302 258.803C174.302 258.196 173.809 257.703 173.202 257.703C172.594 257.703 172.102 258.196 172.102 258.803C172.102 259.411 172.594 259.903 173.202 259.903Z" fill="white"/>
<path d="M173.202 599.2C173.809 599.2 174.302 598.708 174.302 598.1C174.302 597.492 173.809 597 173.202 597C172.594 597 172.102 597.492 172.102 598.1C172.102 598.708 172.594 599.2 173.202 599.2Z" fill="white"/>
<path d="M63.4984 254.7C64.1059 254.7 64.5984 254.208 64.5984 253.6C64.5984 252.992 64.1059 252.5 63.4984 252.5C62.8909 252.5 62.3984 252.992 62.3984 253.6C62.3984 254.208 62.8909 254.7 63.4984 254.7Z" fill="white"/>
<path d="M63.4984 593.997C64.1059 593.997 64.5984 593.504 64.5984 592.897C64.5984 592.289 64.1059 591.797 63.4984 591.797C62.8909 591.797 62.3984 592.289 62.3984 592.897C62.3984 593.504 62.8909 593.997 63.4984 593.997Z" fill="white"/>
<path d="M239.799 391.802C240.407 391.802 240.899 391.309 240.899 390.702C240.899 390.094 240.407 389.602 239.799 389.602C239.192 389.602 238.699 390.094 238.699 390.702C238.699 391.309 239.192 391.802 239.799 391.802Z" fill="white"/>
<path d="M239.799 731.098C240.407 731.098 240.899 730.606 240.899 729.998C240.899 729.391 240.407 728.898 239.799 728.898C239.192 728.898 238.699 729.391 238.699 729.998C238.699 730.606 239.192 731.098 239.799 731.098Z" fill="white"/>
<path d="M318.202 300.403C318.809 300.403 319.302 299.911 319.302 299.303C319.302 298.696 318.809 298.203 318.202 298.203C317.594 298.203 317.102 298.696 317.102 299.303C317.102 299.911 317.594 300.403 318.202 300.403Z" fill="white"/>
<path d="M318.202 639.7C318.809 639.7 319.302 639.207 319.302 638.6C319.302 637.992 318.809 637.5 318.202 637.5C317.594 637.5 317.102 637.992 317.102 638.6C317.102 639.207 317.594 639.7 318.202 639.7Z" fill="white"/>
<path d="M331.299 282.098C331.907 282.098 332.399 281.606 332.399 280.998C332.399 280.391 331.907 279.898 331.299 279.898C330.692 279.898 330.199 280.391 330.199 280.998C330.199 281.606 330.692 282.098 331.299 282.098Z" fill="white"/>
<path d="M331.299 621.395C331.907 621.395 332.399 620.903 332.399 620.295C332.399 619.688 331.907 619.195 331.299 619.195C330.692 619.195 330.199 619.688 330.199 620.295C330.199 620.903 330.692 621.395 331.299 621.395Z" fill="white"/>
<path d="M403.1 229.903C403.708 229.903 404.2 229.411 404.2 228.803C404.2 228.196 403.708 227.703 403.1 227.703C402.492 227.703 402 228.196 402 228.803C402 229.411 402.492 229.903 403.1 229.903Z" fill="white"/>
<path d="M403.1 569.2C403.708 569.2 404.2 568.708 404.2 568.1C404.2 567.492 403.708 567 403.1 567C402.492 567 402 567.492 402 568.1C402 568.708 402.492 569.2 403.1 569.2Z" fill="white"/>
<path d="M501.1 289.302C501.708 289.302 502.2 288.809 502.2 288.202C502.2 287.594 501.708 287.102 501.1 287.102C500.492 287.102 500 287.594 500 288.202C500 288.809 500.492 289.302 501.1 289.302Z" fill="white"/>
<path d="M501.1 628.598C501.708 628.598 502.2 628.106 502.2 627.498C502.2 626.891 501.708 626.398 501.1 626.398C500.492 626.398 500 626.891 500 627.498C500 628.106 500.492 628.598 501.1 628.598Z" fill="white"/>
<path d="M945.7 82.8C946.363 82.8 946.9 82.2627 946.9 81.6C946.9 80.9372 946.363 80.4 945.7 80.4C945.037 80.4 944.5 80.9372 944.5 81.6C944.5 82.2627 945.037 82.8 945.7 82.8Z" fill="white"/>
<path d="M953.501 154.603C954.164 154.603 954.701 154.066 954.701 153.403C954.701 152.74 954.164 152.203 953.501 152.203C952.838 152.203 952.301 152.74 952.301 153.403C952.301 154.066 952.838 154.603 953.501 154.603Z" fill="white"/>
<path d="M953.501 493.9C954.164 493.9 954.701 493.363 954.701 492.7C954.701 492.037 954.164 491.5 953.501 491.5C952.838 491.5 952.301 492.037 952.301 492.7C952.301 493.363 952.838 493.9 953.501 493.9Z" fill="white"/>
<path d="M956.098 276.103C956.761 276.103 957.298 275.566 957.298 274.903C957.298 274.24 956.761 273.703 956.098 273.703C955.436 273.703 954.898 274.24 954.898 274.903C954.898 275.566 955.436 276.103 956.098 276.103Z" fill="white"/>
<path d="M956.098 615.4C956.761 615.4 957.298 614.863 957.298 614.2C957.298 613.537 956.761 613 956.098 613C955.436 613 954.898 613.537 954.898 614.2C954.898 614.863 955.436 615.4 956.098 615.4Z" fill="white"/>
<path d="M833.399 272.603C834.062 272.603 834.599 272.066 834.599 271.403C834.599 270.74 834.062 270.203 833.399 270.203C832.736 270.203 832.199 270.74 832.199 271.403C832.199 272.066 832.736 272.603 833.399 272.603Z" fill="white"/>
<path d="M833.399 611.9C834.062 611.9 834.599 611.363 834.599 610.7C834.599 610.037 834.062 609.5 833.399 609.5C832.736 609.5 832.199 610.037 832.199 610.7C832.199 611.363 832.736 611.9 833.399 611.9Z" fill="white"/>
<path d="M630.998 245.403C631.882 245.403 632.598 244.687 632.598 243.803C632.598 242.919 631.882 242.203 630.998 242.203C630.115 242.203 629.398 242.919 629.398 243.803C629.398 244.687 630.115 245.403 630.998 245.403Z" fill="white"/>
<path d="M630.998 584.7C631.882 584.7 632.598 583.984 632.598 583.1C632.598 582.216 631.882 581.5 630.998 581.5C630.115 581.5 629.398 582.216 629.398 583.1C629.398 583.984 630.115 584.7 630.998 584.7Z" fill="white"/>
<path d="M559.799 220.497C560.683 220.497 561.399 219.781 561.399 218.897C561.399 218.013 560.683 217.297 559.799 217.297C558.916 217.297 558.199 218.013 558.199 218.897C558.199 219.781 558.916 220.497 559.799 220.497Z" fill="white"/>
<path d="M559.799 559.794C560.683 559.794 561.399 559.077 561.399 558.194C561.399 557.31 560.683 556.594 559.799 556.594C558.916 556.594 558.199 557.31 558.199 558.194C558.199 559.077 558.916 559.794 559.799 559.794Z" fill="white"/>
<path d="M566.998 238.997C567.606 238.997 568.098 238.504 568.098 237.897C568.098 237.289 567.606 236.797 566.998 236.797C566.391 236.797 565.898 237.289 565.898 237.897C565.898 238.504 566.391 238.997 566.998 238.997Z" fill="white"/>
<path d="M566.998 578.294C567.606 578.294 568.098 577.801 568.098 577.194C568.098 576.586 567.606 576.094 566.998 576.094C566.391 576.094 565.898 576.586 565.898 577.194C565.898 577.801 566.391 578.294 566.998 578.294Z" fill="white"/>
<path d="M627.702 148.903C628.309 148.903 628.802 148.411 628.802 147.803C628.802 147.196 628.309 146.703 627.702 146.703C627.094 146.703 626.602 147.196 626.602 147.803C626.602 148.411 627.094 148.903 627.702 148.903Z" fill="white"/>
<path d="M627.702 488.2C628.309 488.2 628.802 487.708 628.802 487.1C628.802 486.492 628.309 486 627.702 486C627.094 486 626.602 486.492 626.602 487.1C626.602 487.708 627.094 488.2 627.702 488.2Z" fill="white"/>
<path d="M589.8 81.3C590.628 81.3 591.3 80.6284 591.3 79.8C591.3 78.9716 590.628 78.3 589.8 78.3C588.972 78.3 588.3 78.9716 588.3 79.8C588.3 80.6284 588.972 81.3 589.8 81.3Z" fill="white"/>
<path d="M561.8 80.3C562.407 80.3 562.9 79.8075 562.9 79.2C562.9 78.5925 562.407 78.1 561.8 78.1C561.192 78.1 560.7 78.5925 560.7 79.2C560.7 79.8075 561.192 80.3 561.8 80.3Z" fill="white"/>
<path d="M709.401 150.2C710.008 150.2 710.501 149.708 710.501 149.1C710.501 148.492 710.008 148 709.401 148C708.793 148 708.301 148.492 708.301 149.1C708.301 149.708 708.793 150.2 709.401 150.2Z" fill="white"/>
<path d="M709.401 489.497C710.008 489.497 710.501 489.004 710.501 488.397C710.501 487.789 710.008 487.297 709.401 487.297C708.793 487.297 708.301 487.789 708.301 488.397C708.301 489.004 708.793 489.497 709.401 489.497Z" fill="white"/>
<path d="M787.7 58.7C788.308 58.7 788.8 58.2075 788.8 57.6C788.8 56.9925 788.308 56.5 787.7 56.5C787.093 56.5 786.6 56.9925 786.6 57.6C786.6 58.2075 787.093 58.7 787.7 58.7Z" fill="white"/>
<path d="M970.6 47.6C971.207 47.6 971.7 47.1075 971.7 46.5C971.7 45.8925 971.207 45.4 970.6 45.4C969.992 45.4 969.5 45.8925 969.5 46.5C969.5 47.1075 969.992 47.6 970.6 47.6Z" fill="white"/>
<path d="M573.6 331.802C574.207 331.802 574.7 331.309 574.7 330.702C574.7 330.094 574.207 329.602 573.6 329.602C572.992 329.602 572.5 330.094 572.5 330.702C572.5 331.309 572.992 331.802 573.6 331.802Z" fill="white"/>
<path d="M573.6 671.098C574.207 671.098 574.7 670.606 574.7 669.998C574.7 669.391 574.207 668.898 573.6 668.898C572.992 668.898 572.5 669.391 572.5 669.998C572.5 670.606 572.992 671.098 573.6 671.098Z" fill="white"/>
<path d="M690.3 500.1C690.963 500.1 691.5 499.563 691.5 498.9C691.5 498.237 690.963 497.7 690.3 497.7C689.637 497.7 689.1 498.237 689.1 498.9C689.1 499.563 689.637 500.1 690.3 500.1Z" fill="white"/>
<path d="M766.1 508C766.763 508 767.3 507.463 767.3 506.8C767.3 506.137 766.763 505.6 766.1 505.6C765.437 505.6 764.9 506.137 764.9 506.8C764.9 507.463 765.437 508 766.1 508Z" fill="white"/>
<path d="M853.6 511.9C854.263 511.9 854.8 511.363 854.8 510.7C854.8 510.037 854.263 509.5 853.6 509.5C852.937 509.5 852.4 510.037 852.4 510.7C852.4 511.363 852.937 511.9 853.6 511.9Z" fill="white"/>
<path d="M849.7 481.9C850.363 481.9 850.9 481.363 850.9 480.7C850.9 480.037 850.363 479.5 849.7 479.5C849.037 479.5 848.5 480.037 848.5 480.7C848.5 481.363 849.037 481.9 849.7 481.9Z" fill="white"/>
<path d="M874.5 466.2C875.163 466.2 875.7 465.663 875.7 465C875.7 464.337 875.163 463.8 874.5 463.8C873.837 463.8 873.3 464.337 873.3 465C873.3 465.663 873.837 466.2 874.5 466.2Z" fill="white"/>
<path d="M935.199 364.102C935.752 364.102 936.199 363.654 936.199 363.102C936.199 362.549 935.752 362.102 935.199 362.102C934.647 362.102 934.199 362.549 934.199 363.102C934.199 363.654 934.647 364.102 935.199 364.102Z" fill="white"/>
<path d="M935.199 703.398C935.752 703.398 936.199 702.951 936.199 702.398C936.199 701.846 935.752 701.398 935.199 701.398C934.647 701.398 934.199 701.846 934.199 702.398C934.199 702.951 934.647 703.398 935.199 703.398Z" fill="white"/>
<path d="M1043 426.6C1044.16 426.6 1045.1 425.66 1045.1 424.5C1045.1 423.34 1044.16 422.4 1043 422.4C1041.84 422.4 1040.9 423.34 1040.9 424.5C1040.9 425.66 1041.84 426.6 1043 426.6Z" fill="white"/>
<path d="M1048.9 413.5C1049.34 413.5 1049.7 413.142 1049.7 412.7C1049.7 412.258 1049.34 411.9 1048.9 411.9C1048.46 411.9 1048.1 412.258 1048.1 412.7C1048.1 413.142 1048.46 413.5 1048.9 413.5Z" fill="white"/>
<path d="M1052.1 312.998C1052.54 312.998 1052.9 312.64 1052.9 312.198C1052.9 311.757 1052.54 311.398 1052.1 311.398C1051.66 311.398 1051.3 311.757 1051.3 312.198C1051.3 312.64 1051.66 312.998 1052.1 312.998Z" fill="white"/>
<path d="M1052.1 652.295C1052.54 652.295 1052.9 651.937 1052.9 651.495C1052.9 651.054 1052.54 650.695 1052.1 650.695C1051.66 650.695 1051.3 651.054 1051.3 651.495C1051.3 651.937 1051.66 652.295 1052.1 652.295Z" fill="white"/>
<path d="M1095.9 239.803C1096.34 239.803 1096.7 239.445 1096.7 239.003C1096.7 238.561 1096.34 238.203 1095.9 238.203C1095.46 238.203 1095.1 238.561 1095.1 239.003C1095.1 239.445 1095.46 239.803 1095.9 239.803Z" fill="white"/>
<path d="M1095.9 579.1C1096.34 579.1 1096.7 578.742 1096.7 578.3C1096.7 577.858 1096.34 577.5 1095.9 577.5C1095.46 577.5 1095.1 577.858 1095.1 578.3C1095.1 578.742 1095.46 579.1 1095.9 579.1Z" fill="white"/>
<path d="M1019.5 244.998C1019.94 244.998 1020.3 244.64 1020.3 244.198C1020.3 243.757 1019.94 243.398 1019.5 243.398C1019.06 243.398 1018.7 243.757 1018.7 244.198C1018.7 244.64 1019.06 244.998 1019.5 244.998Z" fill="white"/>
<path d="M1019.5 584.295C1019.94 584.295 1020.3 583.937 1020.3 583.495C1020.3 583.053 1019.94 582.695 1019.5 582.695C1019.06 582.695 1018.7 583.053 1018.7 583.495C1018.7 583.937 1019.06 584.295 1019.5 584.295Z" fill="white"/>
<path d="M1088.2 510.4C1088.75 510.4 1089.2 509.952 1089.2 509.4C1089.2 508.848 1088.75 508.4 1088.2 508.4C1087.65 508.4 1087.2 508.848 1087.2 509.4C1087.2 509.952 1087.65 510.4 1088.2 510.4Z" fill="white"/>
<path d="M1015.7 488.8C1016.25 488.8 1016.7 488.352 1016.7 487.8C1016.7 487.248 1016.25 486.8 1015.7 486.8C1015.15 486.8 1014.7 487.248 1014.7 487.8C1014.7 488.352 1015.15 488.8 1015.7 488.8Z" fill="white"/>
<path d="M998.7 534.5C999.252 534.5 999.7 534.052 999.7 533.5C999.7 532.948 999.252 532.5 998.7 532.5C998.148 532.5 997.7 532.948 997.7 533.5C997.7 534.052 998.148 534.5 998.7 534.5Z" fill="white"/>
<path d="M969.898 361.797C970.451 361.797 970.898 361.349 970.898 360.797C970.898 360.245 970.451 359.797 969.898 359.797C969.346 359.797 968.898 360.245 968.898 360.797C968.898 361.349 969.346 361.797 969.898 361.797Z" fill="white"/>
<path d="M969.898 701.094C970.451 701.094 970.898 700.646 970.898 700.094C970.898 699.541 970.451 699.094 969.898 699.094C969.346 699.094 968.898 699.541 968.898 700.094C968.898 700.646 969.346 701.094 969.898 701.094Z" fill="white"/>
<path d="M966.301 317.703C966.853 317.703 967.301 317.255 967.301 316.703C967.301 316.151 966.853 315.703 966.301 315.703C965.748 315.703 965.301 316.151 965.301 316.703C965.301 317.255 965.748 317.703 966.301 317.703Z" fill="white"/>
<path d="M966.301 657C966.853 657 967.301 656.552 967.301 656C967.301 655.448 966.853 655 966.301 655C965.748 655 965.301 655.448 965.301 656C965.301 656.552 965.748 657 966.301 657Z" fill="white"/>
<path d="M853.301 310.203C853.853 310.203 854.301 309.755 854.301 309.203C854.301 308.651 853.853 308.203 853.301 308.203C852.748 308.203 852.301 308.651 852.301 309.203C852.301 309.755 852.748 310.203 853.301 310.203Z" fill="white"/>
<path d="M853.301 649.5C853.853 649.5 854.301 649.052 854.301 648.5C854.301 647.948 853.853 647.5 853.301 647.5C852.748 647.5 852.301 647.948 852.301 648.5C852.301 649.052 852.748 649.5 853.301 649.5Z" fill="white"/>
<path d="M892.5 274.297C893.052 274.297 893.5 273.849 893.5 273.297C893.5 272.745 893.052 272.297 892.5 272.297C891.948 272.297 891.5 272.745 891.5 273.297C891.5 273.849 891.948 274.297 892.5 274.297Z" fill="white"/>
<path d="M892.5 613.594C893.052 613.594 893.5 613.146 893.5 612.594C893.5 612.041 893.052 611.594 892.5 611.594C891.948 611.594 891.5 612.041 891.5 612.594C891.5 613.146 891.948 613.594 892.5 613.594Z" fill="white"/>
<path d="M744.898 269.102C745.451 269.102 745.898 268.654 745.898 268.102C745.898 267.549 745.451 267.102 744.898 267.102C744.346 267.102 743.898 267.549 743.898 268.102C743.898 268.654 744.346 269.102 744.898 269.102Z" fill="white"/>
<path d="M744.898 608.398C745.451 608.398 745.898 607.951 745.898 607.398C745.898 606.846 745.451 606.398 744.898 606.398C744.346 606.398 743.898 606.846 743.898 607.398C743.898 607.951 744.346 608.398 744.898 608.398Z" fill="white"/>
<path d="M685.1 478.6C685.763 478.6 686.3 478.063 686.3 477.4C686.3 476.737 685.763 476.2 685.1 476.2C684.437 476.2 683.9 476.737 683.9 477.4C683.9 478.063 684.437 478.6 685.1 478.6Z" fill="white"/>
<path d="M1177.5 238.298C1178.16 238.298 1178.7 237.761 1178.7 237.098C1178.7 236.436 1178.16 235.898 1177.5 235.898C1176.84 235.898 1176.3 236.436 1176.3 237.098C1176.3 237.761 1176.84 238.298 1177.5 238.298Z" fill="white"/>
<path d="M1177.5 577.595C1178.16 577.595 1178.7 577.058 1178.7 576.395C1178.7 575.733 1178.16 575.195 1177.5 575.195C1176.84 575.195 1176.3 575.733 1176.3 576.395C1176.3 577.058 1176.84 577.595 1177.5 577.595Z" fill="white"/>
<path d="M1079.2 219.703C1080.03 219.703 1080.7 219.032 1080.7 218.203C1080.7 217.375 1080.03 216.703 1079.2 216.703C1078.37 216.703 1077.7 217.375 1077.7 218.203C1077.7 219.032 1078.37 219.703 1079.2 219.703Z" fill="white"/>
<path d="M1079.2 559C1080.03 559 1080.7 558.328 1080.7 557.5C1080.7 556.672 1080.03 556 1079.2 556C1078.37 556 1077.7 556.672 1077.7 557.5C1077.7 558.328 1078.37 559 1079.2 559Z" fill="white"/>
<path d="M1061.5 119.2C1062.38 119.2 1063.1 118.484 1063.1 117.6C1063.1 116.716 1062.38 116 1061.5 116C1060.62 116 1059.9 116.716 1059.9 117.6C1059.9 118.484 1060.62 119.2 1061.5 119.2Z" fill="white"/>
<path d="M1370.4 122C1371.06 122 1371.6 121.463 1371.6 120.8C1371.6 120.137 1371.06 119.6 1370.4 119.6C1369.74 119.6 1369.2 120.137 1369.2 120.8C1369.2 121.463 1369.74 122 1370.4 122Z" fill="white"/>
<path d="M1247.7 118.5C1248.36 118.5 1248.9 117.963 1248.9 117.3C1248.9 116.637 1248.36 116.1 1247.7 116.1C1247.04 116.1 1246.5 116.637 1246.5 117.3C1246.5 117.963 1247.04 118.5 1247.7 118.5Z" fill="white"/>
<path d="M1045.3 91.3C1046.18 91.3 1046.9 90.5837 1046.9 89.7C1046.9 88.8164 1046.18 88.1 1045.3 88.1C1044.42 88.1 1043.7 88.8164 1043.7 89.7C1043.7 90.5837 1044.42 91.3 1045.3 91.3Z" fill="white"/>
<path d="M1125.9 438.1C1126.51 438.1 1127 437.608 1127 437C1127 436.393 1126.51 435.9 1125.9 435.9C1125.29 435.9 1124.8 436.393 1124.8 437C1124.8 437.608 1125.29 438.1 1125.9 438.1Z" fill="white"/>
<path d="M1207.5 439.4C1208.11 439.4 1208.6 438.908 1208.6 438.3C1208.6 437.692 1208.11 437.2 1207.5 437.2C1206.89 437.2 1206.4 437.692 1206.4 438.3C1206.4 438.908 1206.89 439.4 1207.5 439.4Z" fill="white"/>
<path d="M196.302 313.798C196.964 313.798 197.502 313.261 197.502 312.598C197.502 311.936 196.964 311.398 196.302 311.398C195.639 311.398 195.102 311.936 195.102 312.598C195.102 313.261 195.639 313.798 196.302 313.798Z" fill="white"/>
<path d="M196.302 653.095C196.964 653.095 197.502 652.558 197.502 651.895C197.502 651.233 196.964 650.695 196.302 650.695C195.639 650.695 195.102 651.233 195.102 651.895C195.102 652.558 195.639 653.095 196.302 653.095Z" fill="white"/>
<path d="M1296.4 490.3C1297.01 490.3 1297.5 489.807 1297.5 489.2C1297.5 488.592 1297.01 488.1 1296.4 488.1C1295.79 488.1 1295.3 488.592 1295.3 489.2C1295.3 489.807 1295.79 490.3 1296.4 490.3Z" fill="white"/>
<path d="M1378.1 491.6C1378.71 491.6 1379.2 491.108 1379.2 490.5C1379.2 489.893 1378.71 489.4 1378.1 489.4C1377.49 489.4 1377 489.893 1377 490.5C1377 491.108 1377.49 491.6 1378.1 491.6Z" fill="white"/>
<path d="M1104.6 346.103C1105.26 346.103 1105.8 345.566 1105.8 344.903C1105.8 344.24 1105.26 343.703 1104.6 343.703C1103.94 343.703 1103.4 344.24 1103.4 344.903C1103.4 345.566 1103.94 346.103 1104.6 346.103Z" fill="white"/>
<path d="M1104.6 685.4C1105.26 685.4 1105.8 684.863 1105.8 684.2C1105.8 683.537 1105.26 683 1104.6 683C1103.94 683 1103.4 683.537 1103.4 684.2C1103.4 684.863 1103.94 685.4 1104.6 685.4Z" fill="white"/>
<path d="M1180.4 353.9C1181.06 353.9 1181.6 353.363 1181.6 352.7C1181.6 352.037 1181.06 351.5 1180.4 351.5C1179.74 351.5 1179.2 352.037 1179.2 352.7C1179.2 353.363 1179.74 353.9 1180.4 353.9Z" fill="white"/>
<path d="M1180.4 693.197C1181.06 693.197 1181.6 692.66 1181.6 691.997C1181.6 691.334 1181.06 690.797 1180.4 690.797C1179.74 690.797 1179.2 691.334 1179.2 691.997C1179.2 692.66 1179.74 693.197 1180.4 693.197Z" fill="white"/>
<path d="M1267.9 357.798C1268.56 357.798 1269.1 357.261 1269.1 356.598C1269.1 355.936 1268.56 355.398 1267.9 355.398C1267.24 355.398 1266.7 355.936 1266.7 356.598C1266.7 357.261 1267.24 357.798 1267.9 357.798Z" fill="white"/>
<path d="M1267.9 697.095C1268.56 697.095 1269.1 696.558 1269.1 695.895C1269.1 695.233 1268.56 694.695 1267.9 694.695C1267.24 694.695 1266.7 695.233 1266.7 695.895C1266.7 696.558 1267.24 697.095 1267.9 697.095Z" fill="white"/>
<path d="M1264 327.798C1264.66 327.798 1265.2 327.261 1265.2 326.598C1265.2 325.936 1264.66 325.398 1264 325.398C1263.34 325.398 1262.8 325.936 1262.8 326.598C1262.8 327.261 1263.34 327.798 1264 327.798Z" fill="white"/>
<path d="M1264 667.095C1264.66 667.095 1265.2 666.558 1265.2 665.895C1265.2 665.233 1264.66 664.695 1264 664.695C1263.34 664.695 1262.8 665.233 1262.8 665.895C1262.8 666.558 1263.34 667.095 1264 667.095Z" fill="white"/>
<path d="M1288.8 312.103C1289.46 312.103 1290 311.566 1290 310.903C1290 310.24 1289.46 309.703 1288.8 309.703C1288.14 309.703 1287.6 310.24 1287.6 310.903C1287.6 311.566 1288.14 312.103 1288.8 312.103Z" fill="white"/>
<path d="M1288.8 651.4C1289.46 651.4 1290 650.863 1290 650.2C1290 649.537 1289.46 649 1288.8 649C1288.14 649 1287.6 649.537 1287.6 650.2C1287.6 650.863 1288.14 651.4 1288.8 651.4Z" fill="white"/>
<path d="M1349.5 210C1350.05 210 1350.5 209.552 1350.5 209C1350.5 208.448 1350.05 208 1349.5 208C1348.95 208 1348.5 208.448 1348.5 209C1348.5 209.552 1348.95 210 1349.5 210Z" fill="white"/>
<path d="M1349.5 549.297C1350.05 549.297 1350.5 548.849 1350.5 548.297C1350.5 547.745 1350.05 547.297 1349.5 547.297C1348.95 547.297 1348.5 547.745 1348.5 548.297C1348.5 548.849 1348.95 549.297 1349.5 549.297Z" fill="white"/>
<path d="M1433.8 91C1434.24 91 1434.6 90.6418 1434.6 90.2C1434.6 89.7582 1434.24 89.4 1433.8 89.4C1433.36 89.4 1433 89.7582 1433 90.2C1433 90.6418 1433.36 91 1433.8 91Z" fill="white"/>
<path d="M1430 334.797C1430.55 334.797 1431 334.349 1431 333.797C1431 333.245 1430.55 332.797 1430 332.797C1429.45 332.797 1429 333.245 1429 333.797C1429 334.349 1429.45 334.797 1430 334.797Z" fill="white"/>
<path d="M1430 674.094C1430.55 674.094 1431 673.646 1431 673.094C1431 672.541 1430.55 672.094 1430 672.094C1429.45 672.094 1429 672.541 1429 673.094C1429 673.646 1429.45 674.094 1430 674.094Z" fill="white"/>
<path d="M1413 380.5C1413.55 380.5 1414 380.052 1414 379.5C1414 378.948 1413.55 378.5 1413 378.5C1412.45 378.5 1412 378.948 1412 379.5C1412 380.052 1412.45 380.5 1413 380.5Z" fill="white"/>
<path d="M1413 719.797C1413.55 719.797 1414 719.349 1414 718.797C1414 718.245 1413.55 717.797 1413 717.797C1412.45 717.797 1412 718.245 1412 718.797C1412 719.349 1412.45 719.797 1413 719.797Z" fill="white"/>
<path d="M1384.2 207.703C1384.75 207.703 1385.2 207.255 1385.2 206.703C1385.2 206.151 1384.75 205.703 1384.2 205.703C1383.65 205.703 1383.2 206.151 1383.2 206.703C1383.2 207.255 1383.65 207.703 1384.2 207.703Z" fill="white"/>
<path d="M1384.2 547C1384.75 547 1385.2 546.552 1385.2 546C1385.2 545.448 1384.75 545 1384.2 545C1383.65 545 1383.2 545.448 1383.2 546C1383.2 546.552 1383.65 547 1384.2 547Z" fill="white"/>
<path d="M1380.6 163.703C1381.15 163.703 1381.6 163.255 1381.6 162.703C1381.6 162.151 1381.15 161.703 1380.6 161.703C1380.05 161.703 1379.6 162.151 1379.6 162.703C1379.6 163.255 1380.05 163.703 1380.6 163.703Z" fill="white"/>
<path d="M1380.6 503C1381.15 503 1381.6 502.552 1381.6 502C1381.6 501.448 1381.15 501 1380.6 501C1380.05 501 1379.6 501.448 1379.6 502C1379.6 502.552 1380.05 503 1380.6 503Z" fill="white"/>
<path d="M1267.6 156.203C1268.15 156.203 1268.6 155.755 1268.6 155.203C1268.6 154.651 1268.15 154.203 1267.6 154.203C1267.05 154.203 1266.6 154.651 1266.6 155.203C1266.6 155.755 1267.05 156.203 1267.6 156.203Z" fill="white"/>
<path d="M1267.6 495.5C1268.15 495.5 1268.6 495.052 1268.6 494.5C1268.6 493.948 1268.15 493.5 1267.6 493.5C1267.05 493.5 1266.6 493.948 1266.6 494.5C1266.6 495.052 1267.05 495.5 1267.6 495.5Z" fill="white"/>
<path d="M1306.8 120.2C1307.35 120.2 1307.8 119.752 1307.8 119.2C1307.8 118.648 1307.35 118.2 1306.8 118.2C1306.25 118.2 1305.8 118.648 1305.8 119.2C1305.8 119.752 1306.25 120.2 1306.8 120.2Z" fill="white"/>
<path d="M1159.2 115C1159.75 115 1160.2 114.552 1160.2 114C1160.2 113.448 1159.75 113 1159.2 113C1158.65 113 1158.2 113.448 1158.2 114C1158.2 114.552 1158.65 115 1159.2 115Z" fill="white"/>
<path d="M1099.4 324.502C1100.06 324.502 1100.6 323.964 1100.6 323.302C1100.6 322.639 1100.06 322.102 1099.4 322.102C1098.74 322.102 1098.2 322.639 1098.2 323.302C1098.2 323.964 1098.74 324.502 1099.4 324.502Z" fill="white"/>
<path d="M1099.4 663.798C1100.06 663.798 1100.6 663.261 1100.6 662.598C1100.6 661.936 1100.06 661.398 1099.4 661.398C1098.74 661.398 1098.2 661.936 1098.2 662.598C1098.2 663.261 1098.74 663.798 1099.4 663.798Z" fill="white"/>
<path d="M164.5 87C165.163 87 165.7 86.4627 165.7 85.8C165.7 85.1373 165.163 84.6 164.5 84.6C163.837 84.6 163.3 85.1373 163.3 85.8C163.3 86.4627 163.837 87 164.5 87Z" fill="white"/>
<path d="M66.1 68.3C66.9284 68.3 67.6 67.6284 67.6 66.8C67.6 65.9716 66.9284 65.3 66.1 65.3C65.2715 65.3 64.6 65.9716 64.6 66.8C64.6 67.6284 65.2715 68.3 66.1 68.3Z" fill="white"/>
<path d="M91.5984 194.697C92.2612 194.697 92.7984 194.16 92.7984 193.497C92.7984 192.834 92.2612 192.297 91.5984 192.297C90.9357 192.297 90.3984 192.834 90.3984 193.497C90.3984 194.16 90.9357 194.697 91.5984 194.697Z" fill="white"/>
<path d="M91.5984 533.994C92.2612 533.994 92.7984 533.456 92.7984 532.794C92.7984 532.131 92.2612 531.594 91.5984 531.594C90.9357 531.594 90.3984 532.131 90.3984 532.794C90.3984 533.456 90.9357 533.994 91.5984 533.994Z" fill="white"/>
<path d="M167.302 202.603C167.964 202.603 168.502 202.066 168.502 201.403C168.502 200.74 167.964 200.203 167.302 200.203C166.639 200.203 166.102 200.74 166.102 201.403C166.102 202.066 166.639 202.603 167.302 202.603Z" fill="white"/>
<path d="M167.302 541.9C167.964 541.9 168.502 541.363 168.502 540.7C168.502 540.037 167.964 539.5 167.302 539.5C166.639 539.5 166.102 540.037 166.102 540.7C166.102 541.363 166.639 541.9 167.302 541.9Z" fill="white"/>
<path d="M254.802 206.502C255.464 206.502 256.002 205.964 256.002 205.302C256.002 204.639 255.464 204.102 254.802 204.102C254.139 204.102 253.602 204.639 253.602 205.302C253.602 205.964 254.139 206.502 254.802 206.502Z" fill="white"/>
<path d="M254.802 545.798C255.464 545.798 256.002 545.261 256.002 544.598C256.002 543.936 255.464 543.398 254.802 543.398C254.139 543.398 253.602 543.936 253.602 544.598C253.602 545.261 254.139 545.798 254.802 545.798Z" fill="white"/>
<path d="M250.899 176.4C251.562 176.4 252.099 175.863 252.099 175.2C252.099 174.537 251.562 174 250.899 174C250.236 174 249.699 174.537 249.699 175.2C249.699 175.863 250.236 176.4 250.899 176.4Z" fill="white"/>
<path d="M250.899 515.697C251.562 515.697 252.099 515.16 252.099 514.497C252.099 513.834 251.562 513.297 250.899 513.297C250.236 513.297 249.699 513.834 249.699 514.497C249.699 515.16 250.236 515.697 250.899 515.697Z" fill="white"/>
<path d="M275.7 160.798C276.363 160.798 276.9 160.261 276.9 159.598C276.9 158.936 276.363 158.398 275.7 158.398C275.037 158.398 274.5 158.936 274.5 159.598C274.5 160.261 275.037 160.798 275.7 160.798Z" fill="white"/>
<path d="M275.7 500.095C276.363 500.095 276.9 499.558 276.9 498.895C276.9 498.233 276.363 497.695 275.7 497.695C275.037 497.695 274.5 498.233 274.5 498.895C274.5 499.558 275.037 500.095 275.7 500.095Z" fill="white"/>
<path d="M336.5 58.7C337.052 58.7 337.5 58.2523 337.5 57.7C337.5 57.1477 337.052 56.7 336.5 56.7C335.948 56.7 335.5 57.1477 335.5 57.7C335.5 58.2523 335.948 58.7 336.5 58.7Z" fill="white"/>
<path d="M444.2 121.2C445.36 121.2 446.3 120.26 446.3 119.1C446.3 117.94 445.36 117 444.2 117C443.04 117 442.1 117.94 442.1 119.1C442.1 120.26 443.04 121.2 444.2 121.2Z" fill="white"/>
<path d="M450.1 108.1C450.542 108.1 450.9 107.742 450.9 107.3C450.9 106.858 450.542 106.5 450.1 106.5C449.658 106.5 449.3 106.858 449.3 107.3C449.3 107.742 449.658 108.1 450.1 108.1Z" fill="white"/>
<path d="M489.398 205C489.951 205 490.398 204.552 490.398 204C490.398 203.448 489.951 203 489.398 203C488.846 203 488.398 203.448 488.398 204C488.398 204.552 488.846 205 489.398 205Z" fill="white"/>
<path d="M489.398 544.297C489.951 544.297 490.398 543.849 490.398 543.297C490.398 542.745 489.951 542.297 489.398 542.297C488.846 542.297 488.398 542.745 488.398 543.297C488.398 543.849 488.846 544.297 489.398 544.297Z" fill="white"/>
<path d="M416.898 183.398C417.451 183.398 417.898 182.951 417.898 182.398C417.898 181.846 417.451 181.398 416.898 181.398C416.346 181.398 415.898 181.846 415.898 182.398C415.898 182.951 416.346 183.398 416.898 183.398Z" fill="white"/>
<path d="M416.898 522.695C417.451 522.695 417.898 522.248 417.898 521.695C417.898 521.143 417.451 520.695 416.898 520.695C416.346 520.695 415.898 521.143 415.898 521.695C415.898 522.248 416.346 522.695 416.898 522.695Z" fill="white"/>
<path d="M358.9 485.4C359.784 485.4 360.5 484.684 360.5 483.8C360.5 482.916 359.784 482.2 358.9 482.2C358.016 482.2 357.3 482.916 357.3 483.8C357.3 484.684 358.016 485.4 358.9 485.4Z" fill="white"/>
<path d="M413.7 471.7C414.584 471.7 415.3 470.984 415.3 470.1C415.3 469.216 414.584 468.5 413.7 468.5C412.816 468.5 412.1 469.216 412.1 470.1C412.1 470.984 412.816 471.7 413.7 471.7Z" fill="white"/>
<path d="M353 420.4C353.663 420.4 354.2 419.863 354.2 419.2C354.2 418.537 353.663 418 353 418C352.337 418 351.8 418.537 351.8 419.2C351.8 419.863 352.337 420.4 353 420.4Z" fill="white"/>
<path d="M169.6 428.3C170.208 428.3 170.7 427.807 170.7 427.2C170.7 426.592 170.208 426.1 169.6 426.1C168.992 426.1 168.5 426.592 168.5 427.2C168.5 427.807 168.992 428.3 169.6 428.3Z" fill="white"/>
<path d="M267.6 487.8C268.208 487.8 268.7 487.307 268.7 486.7C268.7 486.092 268.208 485.6 267.6 485.6C266.992 485.6 266.5 486.092 266.5 486.7C266.5 487.307 266.992 487.8 267.6 487.8Z" fill="white"/>
<path d="M397.5 443.8C398.384 443.8 399.1 443.084 399.1 442.2C399.1 441.316 398.384 440.6 397.5 440.6C396.616 440.6 395.9 441.316 395.9 442.2C395.9 443.084 396.616 443.8 397.5 443.8Z" fill="white"/>
<path d="M326.3 419C327.184 419 327.9 418.284 327.9 417.4C327.9 416.516 327.184 415.8 326.3 415.8C325.416 415.8 324.7 416.516 324.7 417.4C324.7 418.284 325.416 419 326.3 419Z" fill="white"/>
<path d="M333.5 437.4C334.108 437.4 334.6 436.908 334.6 436.3C334.6 435.692 334.108 435.2 333.5 435.2C332.893 435.2 332.4 435.692 332.4 436.3C332.4 436.908 332.893 437.4 333.5 437.4Z" fill="white"/>
<path d="M255.9 403.4C256.452 403.4 256.9 402.952 256.9 402.4C256.9 401.848 256.452 401.4 255.9 401.4C255.348 401.4 254.9 401.848 254.9 402.4C254.9 402.952 255.348 403.4 255.9 403.4Z" fill="white"/>
<path d="M183.398 381.898C183.951 381.898 184.398 381.451 184.398 380.898C184.398 380.346 183.951 379.898 183.398 379.898C182.846 379.898 182.398 380.346 182.398 380.898C182.398 381.451 182.846 381.898 183.398 381.898Z" fill="white"/>
<path d="M183.398 721.195C183.951 721.195 184.398 720.748 184.398 720.195C184.398 719.643 183.951 719.195 183.398 719.195C182.846 719.195 182.398 719.643 182.398 720.195C182.398 720.748 182.846 721.195 183.398 721.195Z" fill="white"/>
<path d="M150.6 140.6C151.208 140.6 151.7 140.108 151.7 139.5C151.7 138.892 151.208 138.4 150.6 138.4C149.992 138.4 149.5 138.892 149.5 139.5C149.5 140.108 149.992 140.6 150.6 140.6Z" fill="white"/>
<path d="M218.5 103.2C219.328 103.2 220 102.528 220 101.7C220 100.872 219.328 100.2 218.5 100.2C217.672 100.2 217 100.872 217 101.7C217 102.528 217.672 103.2 218.5 103.2Z" fill="white"/>
<path d="M219.2 74.7C219.807 74.7 220.3 74.2075 220.3 73.6C220.3 72.9925 219.807 72.5 219.2 72.5C218.592 72.5 218.1 72.9925 218.1 73.6C218.1 74.2075 218.592 74.7 219.2 74.7Z" fill="white"/>
<path d="M293 90.4C293.608 90.4 294.1 89.9075 294.1 89.3C294.1 88.6925 293.608 88.2 293 88.2C292.393 88.2 291.9 88.6925 291.9 89.3C291.9 89.9075 292.393 90.4 293 90.4Z" fill="white"/>
<path d="M740.6 204.903C741.207 204.903 741.7 204.411 741.7 203.803C741.7 203.196 741.207 202.703 740.6 202.703C739.992 202.703 739.5 203.196 739.5 203.803C739.5 204.411 739.992 204.903 740.6 204.903Z" fill="white"/>
<path d="M740.6 544.2C741.207 544.2 741.7 543.708 741.7 543.1C741.7 542.492 741.207 542 740.6 542C739.992 542 739.5 542.492 739.5 543.1C739.5 543.708 739.992 544.2 740.6 544.2Z" fill="white"/>
<path d="M808.5 167.398C809.328 167.398 810 166.727 810 165.898C810 165.07 809.328 164.398 808.5 164.398C807.672 164.398 807 165.07 807 165.898C807 166.727 807.672 167.398 808.5 167.398Z" fill="white"/>
<path d="M808.5 506.695C809.328 506.695 810 506.024 810 505.195C810 504.367 809.328 503.695 808.5 503.695C807.672 503.695 807 504.367 807 505.195C807 506.024 807.672 506.695 808.5 506.695Z" fill="white"/>
<path d="M809.2 138.9C809.808 138.9 810.3 138.408 810.3 137.8C810.3 137.193 809.808 136.7 809.2 136.7C808.593 136.7 808.1 137.193 808.1 137.8C808.1 138.408 808.593 138.9 809.2 138.9Z" fill="white"/>
<path d="M882.998 154.598C883.606 154.598 884.098 154.106 884.098 153.498C884.098 152.891 883.606 152.398 882.998 152.398C882.391 152.398 881.898 152.891 881.898 153.498C881.898 154.106 882.391 154.598 882.998 154.598Z" fill="white"/>
<path d="M882.998 493.895C883.606 493.895 884.098 493.403 884.098 492.795C884.098 492.188 883.606 491.695 882.998 491.695C882.391 491.695 881.898 492.188 881.898 492.795C881.898 493.403 882.391 493.895 882.998 493.895Z" fill="white"/>
<path d="M218.6 313.598C219.484 313.598 220.2 312.882 220.2 311.998C220.2 311.115 219.484 310.398 218.6 310.398C217.716 310.398 217 311.115 217 311.998C217 312.882 217.716 313.598 218.6 313.598Z" fill="white"/>
<path d="M218.6 652.895C219.484 652.895 220.2 652.179 220.2 651.295C220.2 650.412 219.484 649.695 218.6 649.695C217.716 649.695 217 650.412 217 651.295C217 652.179 217.716 652.895 218.6 652.895Z" fill="white"/>
<path d="M371.1 56.4C371.652 56.4 372.1 55.9523 372.1 55.4C372.1 54.8477 371.652 54.4 371.1 54.4C370.548 54.4 370.1 54.8477 370.1 55.4C370.1 55.9523 370.548 56.4 371.1 56.4Z" fill="white"/>
<path d="M86.3016 173.197C86.9643 173.197 87.5016 172.66 87.5016 171.997C87.5016 171.334 86.9643 170.797 86.3016 170.797C85.6388 170.797 85.1016 171.334 85.1016 171.997C85.1016 172.66 85.6388 173.197 86.3016 173.197Z" fill="white"/>
<path d="M86.3016 512.494C86.9643 512.494 87.5016 511.956 87.5016 511.294C87.5016 510.631 86.9643 510.094 86.3016 510.094C85.6388 510.094 85.1016 510.631 85.1016 511.294C85.1016 511.956 85.6388 512.494 86.3016 512.494Z" fill="white"/>
</svg>
